# xmcd
#
# Track frame offsets:
#	150
#	14147
#	25592
#	36600
#	50282
#	60375
#	72685
#	86052
#	97155
#	111652
#	125200
#	138975
#	151382
#	161435
#	172292
#	184212
#	198570
#	210052
#	220102
#	230775
#	242462
#	255825
#
# Disc length: 4265 seconds
#
# Revision: 1
# Processed by: cddbd v1.5.1PL0 Copyright (c) Steve Scherf et al.
# Submitted via: audiograbber 1.82.01
#
DISCID=4910a716
DTITLE=Barbara James - Twentieth Century Blues
DYEAR=1996
DGENRE=Blues
TTITLE0=Twentieth Century Blues
TTITLE1=Black Eyed Susan Brown
TTITLE2=Let Me Give My Happiness To You
TTITLE3=It Don't Mean A Thing
TTITLE4=Between The Devil and The Deep Blue Sea
TTITLE5=The Answer Is Love
TTITLE6=Good For Nothing
TTITLE7=I Can't Give You Anything But Love
TTITLE8=The Lights Will Shine Again
TTITLE9=Sitting Making Faces At The  Moon
TTITLE10=Little Ships Will Sail Again
TTITLE11=The Smiths and The Jones
TTITLE12=Austerity Blues
TTITLE13=Small Town Boogie
TTITLE14=Kentucky
TTITLE15=So Long
TTITLE16=When You Put On That Old Blue Suit Again
TTITLE17=Minnie's In The Money
TTITLE18=Slender, Tender and Tall
TTITLE19=I Don't Know Enough You
TTITLE20=Buster, The Swagman's Daughter
TTITLE21=It's A Good Day
EXTD=
EXTT0=
EXTT1=
EXTT2=
EXTT3=
EXTT4=
EXTT5=
EXTT6=
EXTT7=
EXTT8=
EXTT9=
EXTT10=
EXTT11=
EXTT12=
EXTT13=
EXTT14=
EXTT15=
EXTT16=
EXTT17=
EXTT18=
EXTT19=
EXTT20=
EXTT21=
PLAYORDER=
